<?xml version="1.0" encoding="utf-8"?>
<!-- Generator: Adobe Illustrator 17.0.0, SVG Export Plug-In . SVG Version: 6.00 Build 0)  -->
<!DOCTYPE svg PUBLIC "-//W3C//DTD SVG 1.1//EN" "http://www.w3.org/Graphics/SVG/1.1/DTD/svg11.dtd">
<svg version="1.1" id="Layer_1" xmlns="http://www.w3.org/2000/svg" xmlns:xlink="http://www.w3.org/1999/xlink" x="0px" y="0px"
	 width="420px" height="102.7px" viewBox="0 0 420 102.7" enable-background="new 0 0 420 102.7" xml:space="preserve">
<g>
	<path fill="#FFFFFF" d="M15.7,82.7l6.9-18.6l6.5,18.6H15.7z M35.8,101.5H42L25.8,56.7h-6.2l-17,44.8h6.3l5-13.7h17.1L35.8,101.5z
		 M65.6,92c0,3.7-3,5.6-8,5.6c-4.1,0-6.8-1.1-8.3-3.8l-6,1.1c2.4,4.8,7.2,7.1,14.1,7.1c9.4,0,14.2-5.2,14.2-10.7
		c0-7.1-6.5-9-14.1-10.5c-3.6-0.7-7.9-2.1-7.9-5.3c0-2.3,2.2-4.9,6.7-4.9c4.6,0,7.3,3.1,7.7,4.3l5.3-2.2c-2.4-4.6-7.3-6.5-12.4-6.5
		c-7.9,0-13.1,3.9-13.1,10c0,7,6,8.4,11.8,9.7C60.7,86.9,65.6,88.1,65.6,92z M84.1,56.7l-5.9,2.5v8.3h-5.4v4.8h5.4V94
		c-0.1,4.4-0.1,7.7,6.5,7.7c2.2,0,4.5-0.4,5.5-0.6v-4.7c-1.1,0.4-2.7,0.8-3.7,0.8c-2.4,0-2.4-1.7-2.4-5.7V72.2h6.2v-4.8h-6.2V56.7z
		 M95.4,67.4v34h5.7V85.8c0-2.9-0.1-6.4,1.4-8.8c1.9-3,4.6-4.2,10.2-4.2v-5.9c-2.3,0.1-8.4,0.2-11.7,6.6v-6.1H95.4z M146.6,56.7v5.5
		H172l-25.5,33.4v5.8h32.9v-5.4h-26l25.3-33.8v-5.6H146.6z M215.2,67.4v34h5.7V82.2c0-2.5,0-5.1,2.5-7.6c1.8-1.8,4-2.6,6.5-2.6
		c3.1,0,6.3,1.4,7.3,4.7c0.4,1.1,0.4,2.2,0.4,5.6v19.2h5.7V81.3c0-2.9,0-5-0.6-7c-1.7-5.6-6.8-7.8-11.2-7.8c-2,0-7.4,0.5-10.6,6.1
		v-5.2H215.2z M304,93.2c-1.2,2.3-3.4,4.4-7.9,4.4c-3.8,0-10.3-2.4-10.3-13.6c0-3,0.5-13.7,9.9-13.7c4.7,0,6.9,2.6,7.9,4.8l5.4-2.2
		c-3.3-5.5-9.2-6.8-13.5-6.8c-10.8,0-16.1,8.7-16.1,18.3c0,8.3,4.5,17.6,16.6,17.6c7,0,10.9-3.4,13-6.7L304,93.2z M187.7,80.9h18
		c-0.5-8.9-5.6-10.4-9.1-10.4C191.8,70.5,188.3,74.1,187.7,80.9z M210.4,94.9c-1.9,3.3-5.7,7.1-13.1,7.1c-10.1,0-15.8-6.8-15.8-18.3
		c0-12.8,8.4-17.7,15.6-17.7c6.2,0,12.2,3.5,14.2,12c0.6,2.9,0.6,5.5,0.6,6.9h-24.4c-0.2,5.7,2.2,12.9,10.3,12.7
		c3.3-0.1,5.6-1.5,7.1-3.9L210.4,94.9z M252.6,80.9h18c-0.5-8.9-5.6-10.4-9.1-10.4C256.7,70.5,253.2,74.1,252.6,80.9z M275.3,94.9
		c-2,3.3-5.7,7.1-13.1,7.1c-10,0-15.8-6.8-15.8-18.3c0-12.8,8.4-17.7,15.6-17.7c6.3,0,12.2,3.5,14.2,12c0.6,2.9,0.6,5.5,0.6,6.9
		h-24.4c-0.1,5.7,2.2,12.9,10.3,12.7c3.3-0.1,5.6-1.5,7.1-3.9L275.3,94.9z M340.2,101.5l-5.9,0c0,0-0.5-2.4-0.7-5
		c-1.7,1.8-4.9,5.5-11.4,5.5c-6.6,0-11.5-3.9-11.5-9.7c0-1.8,0.5-3.6,1.5-5.1c1.9-2.9,5.6-5.2,15.7-6l5.4-0.4v-0.9
		c0-3.5,0-9.4-7.6-9.4c-4.8,0-6.4,2.3-6.9,4.4l-5.3-2.2c0.1-0.2,0.2-0.4,0.3-0.6c2-3.7,6-6,11.7-6c3.2,0,7.2,0.8,9.9,2.9
		c3.8,2.9,3.7,8.5,3.7,8.5l0.2,17.5C339.3,95,339.5,100,340.2,101.5z M332.4,92.1c0.9-1.9,0.9-2.7,0.9-7.6c-2.2,0.4-5.2,0.8-8.9,1.6
		c-6.3,1.4-7.4,3.7-7.4,6.1c0,2.7,2.2,5,6.4,5C327.4,97.2,330.8,95.6,332.4,92.1z M142.5,101.5l-5.9,0c0,0-0.5-2.4-0.7-5
		c-1.7,1.8-4.9,5.5-11.4,5.5c-6.6,0-11.5-3.9-11.5-9.7c0-1.8,0.5-3.6,1.5-5.1c1.9-2.9,5.6-5.2,15.7-6l5.4-0.4v-0.9
		c0-3.5,0-9.4-7.6-9.4c-4.8,0-6.4,2.3-7,4.4l-5.3-2.2c0.1-0.2,0.2-0.4,0.3-0.6c2-3.7,6-6,11.7-6c3.1,0,7.2,0.8,9.9,2.9
		c3.8,2.9,3.7,8.5,3.7,8.5l0.2,17.5C141.6,95,141.8,100,142.5,101.5z M134.7,92.1c0.9-1.9,0.9-2.7,0.9-7.6c-2.2,0.4-5.2,0.8-8.9,1.6
		c-6.3,1.4-7.4,3.7-7.4,6.1c0,2.7,2.2,5,6.4,5C129.7,97.2,133.1,95.6,134.7,92.1z"/>
	<path fill="#FFFFFF" d="M377.4,72.8c-0.9,0.6-1.8,1.1-2.7,1.7c-10.3-5.7-32.3-16.7-34.2-17.7c-2-1.1-5.6-2.5-5.2-5.9
		c0.6-4.8,8.9-15.2,12.4-19.5c19-23.2,27.5-30.4,33.2-29.7c6,0.8,9.4,7,9.8,36.2c-3.4-1-7.1-2.1-11-3.1c-0.3-4.2-1.1-10.6-1.4-12.8
		c-0.3-2.5-0.8-3.4-1.8-3.6c-1.1-0.1-3.9,2.5-6.4,5.1c-1.1,1.2-4.4,4.4-7.9,8c-3-0.2-5,0.4-6.1,1.9c-0.9,1.2-1.1,2.8-0.5,4.8
		c-1.9,1.9-3.6,3.6-4.6,4.6c-4,4-8.2,7.2-8.4,8.8c-0.2,1.3,1.8,2.7,4.7,4.4C354.2,60.2,371.3,69.5,377.4,72.8z M404.1,43.7
		c-6.7-2.3-23.3-8.5-40.8-10.8c-6-0.8-8.4,1.3-6,7.1c2.4,5.7,8.8,15.1,15.4,22.3c6.6,7.1,13.8,9,16.1-1.9c0.1-0.4,0.2-0.8,0.2-1.2
		c0.6-2.8,1-5.5,1.2-7.9c-2.9-1.3-6.2-2.8-9.5-4.2c0.2,2.5,0.5,6.9,0.6,10.2c0,0.4,0,0.8,0,1.2c0.2,5.4-1.6,5.4-4.7,3.2
		c-3.6-2.6-14.6-17.1-15.8-23.5c-0.1-0.4,0.1-0.4,0.4-0.4c0.1,0,0.2,0.1,0.3,0.1c0,0,0,0,0,0l0,0c2.5,1,10.7,4.2,19.1,7.8
		c3.3,1.4,6.7,2.9,9.7,4.2c3,1.3,5.6,2.6,7.6,3.7c3.6,1.9,5,3.3,3.5,4.8c-7.5,7.7-33.9,18.5-43,32c0,0,0,0-0.1,0.1
		c-0.1,0.1-0.2,0.3-0.3,0.5c0,0.1,0,0.1-0.1,0.2c-0.4,0.8-1.1,2.3-1.3,4c-0.4,2.9,1.1,5.6,5.4,6.8c1.1,0.3,2.3,0.5,3.6,0.7
		c0.2,0,0.5,0,0.7,0c8.1,0.4,29.2-4.2,35.6-7.1c6.6-2.9,4.6-5.9,2.7-7.4c-1.4-1.1-8.8-5.3-12.4-7.2c-1,0.6-1.7,1.1-2.7,1.7
		c6.1,3.7,8.5,5.6,9.9,6.7c0.5,0.4,0.2,0.9-0.6,1c-0.2,0-0.4,0-0.7,0c-5.8,0.4-16.7,1.2-21.9,1.4c-0.8,0-1.6,0.1-2.1,0.1
		c1.3-1.2,2.7-2.3,3.4-2.8c11-7.7,29.3-18.6,34.7-23.3C416.6,62.4,427.4,51.9,404.1,43.7z"/>
</g>
</svg>
