<?xml version="1.0" encoding="utf-8"?>
<!-- Generator: Adobe Illustrator 17.0.0, SVG Export Plug-In . SVG Version: 6.00 Build 0)  -->
<!DOCTYPE svg PUBLIC "-//W3C//DTD SVG 1.1//EN" "http://www.w3.org/Graphics/SVG/1.1/DTD/svg11.dtd">
<svg version="1.1" id="Layer_1" xmlns="http://www.w3.org/2000/svg" xmlns:xlink="http://www.w3.org/1999/xlink" x="0px" y="0px"
	 width="434.7px" height="78.7px" viewBox="0 0 434.7 78.7" enable-background="new 0 0 434.7 78.7" xml:space="preserve">
<path fill="#FFFFFF" d="M24.6,30.8c-0.8-2.2-2.4-3.4-5-3.4c-2.6,0-5.1,1.1-7,3.1v19.6c1.4,1.2,3.7,2.4,5.8,2.4
	c5.2,0,7.3-3.5,7.3-12.8C25.6,35.9,25.3,32.8,24.6,30.8 M31.5,56.3c-2.8,2.9-6.4,4.6-10.8,4.6c-3.2,0-6.2-0.8-8.4-2.1
	c0.2,0.9,0.2,2.1,0.2,3.3v12.6L2.3,77.3V30.7c0-5.3-0.1-6.8-0.6-10.2l9.4-1.7c0.4,1.4,0.6,2.5,0.7,3.8c1.8-2.2,5.8-3.8,9.9-3.8
	c2.8,0,5.8,0.9,8,2.4c4.3,2.9,7.5,8.1,7.5,17.4C37.1,47.4,35.7,51.8,31.5,56.3"/>
<path fill="#FFFFFF" d="M64.9,34.9c0-3-0.3-4.6-1.3-6.1c-1-1.6-2.5-2.4-4.7-2.4c-4,0-6.3,3.2-6.3,8.8v0.2h12.2V34.9z M52.5,43.1v0.3
	c0,6.2,3.1,9.8,8.5,9.8c3.6,0,7-1.3,10.2-4l4.1,6.3c-4.7,3.8-9.5,5.6-15.2,5.6c-11.6,0-19.1-8.2-19.1-20.9c0-7.3,1.5-12.1,5-16
	c3.3-3.7,7.3-5.4,12.7-5.4c4.7,0,9.1,1.6,11.7,4.3c3.7,3.8,5.4,9.2,5.4,17.7v2.4H52.5z"/>
<path fill="#FFFFFF" d="M104.3,32.5c-0.8-3.5-3-5.1-5.8-5.1c-2.8,0-4.7,1.7-6,3.2v18.6c1.4,1.3,3.1,2.6,5.9,2.6c2.6,0,4.3-1,5.1-3.2
	c0.9-2.2,1.2-4.3,1.2-9.3C104.8,35.7,104.7,34.2,104.3,32.5 M109.3,57.6c-2.8,2.2-5.5,3.2-8.8,3.2c-3.9,0-6.7-1.2-9-3.7
	c-0.3,1.4-0.4,1.8-1.1,2.9h-9.5c0.8-1.8,1-3,1-8.6V14c0-5-0.2-7.6-0.7-9.9L92,1.6c0.3,2.8,0.4,4.4,0.4,7.2v9.5
	c0,1.2-0.1,2.9-0.2,3.5c2-2.2,4.9-3.2,8.6-3.2c9.9,0,16,7.9,16,20.5C116.8,47.3,114.3,53.7,109.3,57.6"/>
<path fill="#FFFFFF" d="M145.7,32.5c-0.8-3.5-3-5.1-5.8-5.1s-4.7,1.7-6,3.2v18.6c1.4,1.3,3.1,2.6,5.9,2.6c2.6,0,4.3-1,5.1-3.2
	c0.9-2.2,1.2-4.3,1.2-9.3C146.1,35.7,146.1,34.2,145.7,32.5 M150.6,57.6c-2.8,2.2-5.5,3.2-8.8,3.2c-3.9,0-6.7-1.2-9-3.7
	c-0.3,1.4-0.4,1.8-1.1,2.9h-9.5c0.8-1.8,1-3,1-8.6V14c0-5-0.2-7.6-0.7-9.9l10.8-2.5c0.3,2.8,0.4,4.4,0.4,7.2v9.5
	c0,1.2-0.1,2.9-0.2,3.5c2-2.2,4.9-3.2,8.6-3.2c9.9,0,16,7.9,16,20.5C158.1,47.3,155.6,53.7,150.6,57.6"/>
<path fill="#FFFFFF" d="M174.8,60.9c-4.5,0-8.1-2.1-9.4-5.5c-0.8-2.1-0.9-3.3-0.9-9.1V16.2c0-5.3-0.2-8.5-0.6-12.1l10.8-2.4
	c0.4,2.2,0.6,4.8,0.6,10.5v31.5c0,6.9,0.1,7.9,0.7,9c0.4,0.7,1.3,1.1,2.1,1.1c0.4,0,0.6,0,1.2-0.2l1.8,6.3
	C179.3,60.5,177.1,60.9,174.8,60.9"/>
<path fill="#FFFFFF" d="M205.9,34.9c0-3-0.3-4.6-1.3-6.1c-1-1.6-2.5-2.4-4.7-2.4c-4,0-6.3,3.2-6.3,8.8v0.2h12.2V34.9z M193.5,43.1
	v0.3c0,6.2,3.1,9.8,8.5,9.8c3.6,0,7-1.3,10.2-4l4.1,6.3c-4.7,3.8-9.5,5.6-15.2,5.6c-11.6,0-19.1-8.2-19.1-20.9c0-7.3,1.5-12.1,5-16
	c3.3-3.7,7.3-5.4,12.7-5.4c4.7,0,9.1,1.6,11.7,4.3c3.7,3.8,5.4,9.2,5.4,17.7v2.4H193.5z"/>
<path fill="#FFFFFF" d="M247,74.9c-5.6,0-10.2-3.3-10.2-11.5V49.8c0-4.9-6.5-5.4-8.5-5.4v-9c2,0,8.5-0.6,8.5-5.4V16.3
	c0-8.2,4.3-11.4,10.2-11.4h8.3v9h-3.9c-4.8,0-5.1,2.9-5.1,5v12.7c0,7.3-4.6,7.9-7.9,8.2V40c3.3,0.2,7.9,0.8,7.9,8.1v12.8
	c0,2.1,0.3,5,5.1,5h3.9v9H247z"/>
<path fill="#FFFFFF" d="M283.5,58.4c-2.8,1.7-6,2.5-9.9,2.5c-11.1,0-17.6-7.7-17.6-20.8c0-9.3,3.5-15.5,8.3-18.7c2.7-1.8,6.6-3,10-3
	c2.7,0,5.6,0.6,7.8,1.8c1.5,0.8,2.2,1.3,3.9,2.8L281,30c-2.1-2-4.4-3.2-6.4-3.2c-4.7,0-6.9,4.1-6.9,13.6c0,5.3,0.7,8.4,2,10.2
	c1.1,1.4,2.9,2.3,4.7,2.3c2.4,0,4.7-1,7.2-3.3l0.6-0.6l4.8,6.4C285.6,57,284.9,57.5,283.5,58.4"/>
<path fill="#FFFFFF" d="M311.5,28.8c-1-1.3-2.7-2.1-4.6-2.1c-2.5,0-4.6,1.6-5.4,4.1c-0.7,2.1-1.1,5-1.1,9c0,4.7,0.5,8.1,1.3,10.2
	c0.9,2.2,3.3,3.3,5.4,3.3c4.6,0,6.5-4.1,6.5-13.6C313.6,34.1,312.9,30.6,311.5,28.8 M320.1,55.2c-3.1,3.5-7.1,5.6-13.3,5.6
	c-11,0-18.1-8.2-18.1-20.9c0-12.7,7.3-21.1,18.1-21.1c5.8,0,10.3,2,13.7,6.1c3.2,3.8,4.7,8.2,4.7,14.7
	C325.1,46.6,323.5,51.3,320.1,55.2"/>
<path fill="#FFFFFF" d="M353.7,30.3c-2-1.7-3.9-2.6-5.8-2.6c-4.7,0-6.8,3.9-6.8,12.9c0,8.7,1.8,11.5,7.3,11.5c2,0,4.2-1.3,5.2-2.6
	L353.7,30.3L353.7,30.3z M356.1,60c-0.3-0.6-0.5-1.3-0.6-2.4c-2.6,2.3-5.7,3.4-9.3,3.4c-10.2,0-16.7-8-16.7-20.5
	c0-12.6,7-21.3,17.3-21.3c2.9,0,5.2,0.7,7.2,2.3c-0.2-0.9-0.3-3.6-0.3-6V1.6L364,3.3v41.9c0,9.9,0.8,13.2,1.5,14.7H356.1z"/>
<path fill="#FFFFFF" d="M394.4,34.9c0-3-0.3-4.6-1.3-6.1c-1-1.6-2.5-2.4-4.7-2.4c-4,0-6.3,3.2-6.3,8.8v0.2h12.2V34.9z M382,43.1v0.3
	c0,6.2,3.1,9.8,8.5,9.8c3.6,0,7-1.3,10.2-4l4.1,6.3c-4.7,3.8-9.5,5.6-15.2,5.6c-11.6,0-19.1-8.2-19.1-20.9c0-7.3,1.5-12.1,5-16
	c3.3-3.7,7.3-5.4,12.7-5.4c4.7,0,9.1,1.6,11.7,4.3c3.7,3.8,5.4,9.2,5.4,17.7v2.4H382z"/>
<path fill="#FFFFFF" d="M425.4,49.8v13.6c0,8.2-4.3,11.4-10.2,11.4h-8.3v-9h3.9c4.8,0,5.1-2.9,5.1-5V48.2c0-7.3,4.6-7.9,7.9-8.2
	v-0.2c-3.3-0.2-7.9-0.8-7.9-8.1V18.9c0-2.1-0.3-5-5.1-5h-3.9v-9h8.5c5.4,0,9.9,3.3,9.9,11.5V30c0,4.9,6.3,5.4,8.5,5.4v9
	C431.7,44.4,425.4,44.9,425.4,49.8"/>
</svg>
