<?xml version="1.0" encoding="utf-8"?>
<!-- Generator: Adobe Illustrator 17.0.0, SVG Export Plug-In . SVG Version: 6.00 Build 0)  -->
<!DOCTYPE svg PUBLIC "-//W3C//DTD SVG 1.1//EN" "http://www.w3.org/Graphics/SVG/1.1/DTD/svg11.dtd">
<svg version="1.1" id="Layer_1" xmlns="http://www.w3.org/2000/svg" xmlns:xlink="http://www.w3.org/1999/xlink" x="0px" y="0px"
	 width="70px" height="118.7px" viewBox="0 0 70 118.7" enable-background="new 0 0 70 118.7" xml:space="preserve">
<g>
	<g>
		<path fill="#C7C6CC" d="M69,114.1c0,2-2.3,3.6-4.1,3.6H15.8c-1.8,0-2.8-1.6-2.8-3.6V17.9c0-2,1-4.2,2.8-4.2h49.1
			c1.8,0,4.1,2.2,4.1,4.2V114.1z"/>
		<circle fill="#FFFFFF" cx="40.3" cy="60.3" r="5.3"/>
		<g>
			<path fill="#FFFFFF" d="M31,79.7c0,1.1-0.9,2-2,2h-8c-1.1,0-2-0.9-2-2v-8c0-1.1,0.9-2,2-2h8c1.1,0,2,0.9,2,2V79.7z"/>
			<path fill="#FFFFFF" d="M46,79.7c0,1.1-0.9,2-2,2h-8c-1.1,0-2-0.9-2-2v-8c0-1.1,0.9-2,2-2h8c1.1,0,2,0.9,2,2V79.7z"/>
			<path fill="#FFFFFF" d="M62,79.7c0,1.1-0.9,2-2,2h-8c-1.1,0-2-0.9-2-2v-8c0-1.1,0.9-2,2-2h8c1.1,0,2,0.9,2,2V79.7z"/>
		</g>
		<g>
			<path fill="#FFFFFF" d="M31,92.7c0,1.1-0.9,2-2,2h-8c-1.1,0-2-0.9-2-2v-8c0-1.1,0.9-2,2-2h8c1.1,0,2,0.9,2,2V92.7z"/>
			<path fill="#FFFFFF" d="M46,92.7c0,1.1-0.9,2-2,2h-8c-1.1,0-2-0.9-2-2v-8c0-1.1,0.9-2,2-2h8c1.1,0,2,0.9,2,2V92.7z"/>
			<path fill="#FFFFFF" d="M62,92.7c0,1.1-0.9,2-2,2h-8c-1.1,0-2-0.9-2-2v-8c0-1.1,0.9-2,2-2h8c1.1,0,2,0.9,2,2V92.7z"/>
		</g>
		<g>
			<path fill="#FFFFFF" d="M31,106.7c0,1.1-0.9,2-2,2h-8c-1.1,0-2-0.9-2-2v-8c0-1.1,0.9-2,2-2h8c1.1,0,2,0.9,2,2V106.7z"/>
			<path fill="#FFFFFF" d="M46,106.7c0,1.1-0.9,2-2,2h-8c-1.1,0-2-0.9-2-2v-8c0-1.1,0.9-2,2-2h8c1.1,0,2,0.9,2,2V106.7z"/>
			<path fill="#FFFFFF" d="M62,106.7c0,1.1-0.9,2-2,2h-8c-1.1,0-2-0.9-2-2v-8c0-1.1,0.9-2,2-2h8c1.1,0,2,0.9,2,2V106.7z"/>
		</g>
		<path fill="#FFFFFF" d="M63,46.7c0,1.1-0.9,2-2,2H21c-1.1,0-2-0.9-2-2v-23c0-1.1,0.9-2,2-2h40c1.1,0,2,0.9,2,2V46.7z"/>
		<path fill="#FFFFFF" d="M31,57.2c0,1.4-1.1,2.5-2.5,2.5h-7c-1.4,0-2.5-1.1-2.5-2.5l0,0c0-1.4,1.1-2.5,2.5-2.5h7
			C29.9,54.7,31,55.8,31,57.2L31,57.2z"/>
		<path fill="#FFFFFF" d="M63,57.2c0,1.4-1.1,2.5-2.5,2.5h-7c-1.4,0-2.5-1.1-2.5-2.5l0,0c0-1.4,1.1-2.5,2.5-2.5h7
			C61.9,54.7,63,55.8,63,57.2L63,57.2z"/>
	</g>
	<g>
		<path fill="#FFFFFF" d="M17.8,4.7C8.8,4.2,3.7,10.8,4,19.4c0.1,1.9,3.1,1.9,3,0c-0.3-7,3.4-12.2,10.8-11.8
			C19.7,7.8,19.7,4.8,17.8,4.7L17.8,4.7z"/>
	</g>
	<g>
		<path fill="#FFFFFF" d="M10.8,0.9C4.2,0.5,0.4,5.5,0.6,11.8c0.1,1.9,3.1,1.9,3,0C3.5,7,5.8,3.6,10.8,3.9C12.8,4,12.8,1,10.8,0.9
			L10.8,0.9z"/>
	</g>
</g>
</svg>
